<svg xmlns="http://www.w3.org/2000/svg" xmlns:xlink="http://www.w3.org/1999/xlink" fill="none" version="1.1" width="512" height="512" viewBox="0 0 512 512"><defs><mask id="master_svg0_392_1186" style="mask-type:alpha" maskUnits="objectBoundingBox"><g><rect x="0" y="0" width="512" height="512" rx="0" fill="#FFFFFF" fill-opacity="1"/></g></mask></defs><g mask="url(#master_svg0_392_1186)"><g><ellipse cx="242" cy="156" rx="100" ry="100" fill="#FFFFFF" fill-opacity="1"/></g><g><ellipse cx="363" cy="343" rx="60" ry="60" fill="#FFFFFF" fill-opacity="1"/></g><g><ellipse cx="142" cy="416" rx="40" ry="40" fill="#FFFFFF" fill-opacity="1"/></g><g transform="matrix(0.33034422993659973,-0.9438605904579163,0.9438604712486267,0.3303442597389221,-291.52531891700346,421.10342406318523)"><line x1="151.00390625" y1="408.5" x2="426.46832275390625" y2="408.5" fill-opacity="0" stroke-opacity="1" stroke="#FFFFFF" fill="none" stroke-width="15"/></g><g transform="matrix(-0.5432449579238892,-0.8395742774009705,0.8395742774009705,-0.5432449579238892,268.6207212216759,832.2849449105124)"><path d="M360.705078125,335.5733642578125L583.436078125,335.5733642578125Q583.620078125,335.5733642578125,583.8040781249999,335.5823942578125Q583.988078125,335.5914342578125,584.171078125,335.6094842578125Q584.354078125,335.6275242578125,584.536078125,335.6545442578125Q584.718078125,335.6815542578125,584.899078125,335.7174742578125Q585.080078125,335.7533942578125,585.258078125,335.7981342578125Q585.437078125,335.8428642578125,585.613078125,335.8963142578125Q585.7890781250001,335.9497542578125,585.963078125,336.0117842578125Q586.136078125,336.0738142578125,586.306078125,336.1442642578125Q586.476078125,336.2147242578125,586.643078125,336.2934442578125Q586.809078125,336.3721642578125,586.971078125,336.4589542578125Q587.134078125,336.5457442578125,587.292078125,336.6404042578125Q587.450078125,336.7350542578125,587.603078125,336.8373442578125Q587.7560781249999,336.9396342578125,587.9040781250001,337.0493042578125Q588.052078125,337.1589842578125,588.194078125,337.2757842578125Q588.336078125,337.3925842578125,588.473078125,337.5162342578125Q588.609078125,337.6398742578125,588.739078125,337.7700642578125Q588.869078125,337.9002542578125,588.993078125,338.0366742578125Q589.117078125,338.1730942578125,589.233078125,338.3154142578125Q589.350078125,338.4577342578125,589.460078125,338.6056242578125Q589.570078125,338.7535042578125,589.672078125,338.9065842578125Q589.774078125,339.0596742578125,589.869078125,339.2175942578125Q589.963078125,339.3755142578125,590.050078125,339.5378842578125Q590.137078125,339.7002642578125,590.216078125,339.8667042578125Q590.295078125,340.0331342578125,590.365078125,340.2032342578125Q590.435078125,340.3733342578125,590.497078125,340.5466942578125Q590.559078125,340.7200442578125,590.613078125,340.8962342578125Q590.666078125,341.0724142578125,590.711078125,341.2510142578125Q590.7560781249999,341.4296142578125,590.792078125,341.6101842578125Q590.828078125,341.7907642578125,590.855078125,341.9728842578125Q590.882078125,342.1550082578125,590.9000781249999,342.3382362578125Q590.918078125,342.5214642578125,590.927078125,342.7053562578125Q590.936078125,342.8892492578125,590.936078125,343.0733642578125Q590.936078125,343.2574792578125,590.927078125,343.4413722578125Q590.918078125,343.6252642578125,590.9000781249999,343.8084922578125Q590.882078125,343.9917202578125,590.855078125,344.1738442578125Q590.828078125,344.3559642578125,590.792078125,344.5365442578125Q590.7560781249999,344.7171142578125,590.711078125,344.8957142578125Q590.666078125,345.0743142578125,590.613078125,345.2504942578125Q590.559078125,345.4266842578125,590.497078125,345.6000342578125Q590.435078125,345.7733942578125,590.365078125,345.9434942578125Q590.295078125,346.1135942578125,590.216078125,346.2800242578125Q590.137078125,346.4464642578125,590.050078125,346.6088442578125Q589.963078125,346.7712142578125,589.869078125,346.9291342578125Q589.774078125,347.0870542578125,589.672078125,347.2401442578125Q589.570078125,347.3932242578125,589.460078125,347.5411042578125Q589.350078125,347.6889942578125,589.233078125,347.8313142578125Q589.117078125,347.9736342578125,588.993078125,348.1100542578125Q588.869078125,348.2464742578125,588.739078125,348.3766642578125Q588.609078125,348.5068542578125,588.473078125,348.6304942578125Q588.336078125,348.7541442578125,588.194078125,348.8709442578125Q588.052078125,348.9877442578125,587.9040781250001,349.0974242578125Q587.7560781249999,349.2070942578125,587.603078125,349.3093842578125Q587.450078125,349.4116742578125,587.292078125,349.5063242578125Q587.134078125,349.6009842578125,586.971078125,349.6877742578125Q586.809078125,349.7745642578125,586.643078125,349.8532842578125Q586.476078125,349.9320042578125,586.306078125,350.0024642578125Q586.136078125,350.0729142578125,585.963078125,350.1349442578125Q585.7890781250001,350.1969742578125,585.613078125,350.2504142578125Q585.437078125,350.3038642578125,585.258078125,350.3485942578125Q585.080078125,350.3933342578125,584.899078125,350.4292542578125Q584.718078125,350.4651742578125,584.536078125,350.4921842578125Q584.354078125,350.5192042578125,584.171078125,350.5372442578125Q583.988078125,350.5552942578125,583.8040781249999,350.5643342578125Q583.620078125,350.5733642578125,583.436078125,350.5733642578125L360.705078125,350.5733642578125Q360.520963125,350.5733642578125,360.337070125,350.5643342578125Q360.153178125,350.5552942578125,359.969950125,350.5372442578125Q359.786722125,350.5192042578125,359.604598125,350.4921842578125Q359.422478125,350.4651742578125,359.241898125,350.4292542578125Q359.061328125,350.3933342578125,358.882728125,350.3485942578125Q358.704128125,350.3038642578125,358.527948125,350.2504142578125Q358.351758125,350.1969742578125,358.178408125,350.1349442578125Q358.005048125,350.0729142578125,357.834948125,350.0024642578125Q357.664848125,349.9320042578125,357.498418125,349.8532842578125Q357.331978125,349.7745642578125,357.169598125,349.6877742578125Q357.007228125,349.6009842578125,356.849308125,349.5063242578125Q356.691388125,349.4116742578125,356.538298125,349.3093842578125Q356.385218125,349.2070942578125,356.237338125,349.0974242578125Q356.089448125,348.9877442578125,355.947128125,348.8709442578125Q355.804808125,348.7541442578125,355.668388125,348.6304942578125Q355.531968125,348.5068542578125,355.401778125,348.3766642578125Q355.271588125,348.2464742578125,355.147948125,348.1100542578125Q355.024298125,347.9736342578125,354.907498125,347.8313142578125Q354.790698125,347.6889942578125,354.681018125,347.5411042578125Q354.571348125,347.3932242578125,354.469058125,347.2401442578125Q354.366768125,347.0870542578125,354.272118125,346.9291342578125Q354.177458125,346.7712142578125,354.090668125,346.6088442578125Q354.003878125,346.4464642578125,353.925158125,346.2800242578125Q353.846438125,346.1135942578125,353.775978125,345.9434942578125Q353.705528125,345.7733942578125,353.643498125,345.6000342578125Q353.581468125,345.4266842578125,353.528028125,345.2504942578125Q353.474578125,345.0743142578125,353.429848125,344.8957142578125Q353.385108125,344.7171142578125,353.349188125,344.5365442578125Q353.313268125,344.3559642578125,353.286258125,344.1738442578125Q353.259238125,343.9917202578125,353.241198125,343.8084922578125Q353.223148125,343.6252642578125,353.214108125,343.4413722578125Q353.205078125,343.2574792578125,353.205078125,343.0733642578125Q353.205078125,342.8892492578125,353.214108125,342.7053562578125Q353.223148125,342.5214642578125,353.241198125,342.3382362578125Q353.259238125,342.1550082578125,353.286258125,341.9728842578125Q353.313268125,341.7907642578125,353.349188125,341.6101842578125Q353.385108125,341.4296142578125,353.429848125,341.2510142578125Q353.474578125,341.0724142578125,353.528028125,340.8962342578125Q353.581468125,340.7200442578125,353.643498125,340.5466942578125Q353.705528125,340.3733342578125,353.775978125,340.2032342578125Q353.846438125,340.0331342578125,353.925158125,339.8667042578125Q354.003878125,339.7002642578125,354.090668125,339.5378842578125Q354.177458125,339.3755142578125,354.272118125,339.2175942578125Q354.366768125,339.0596742578125,354.469058125,338.9065842578125Q354.571348125,338.7535042578125,354.681018125,338.6056242578125Q354.790698125,338.4577342578125,354.907498125,338.3154142578125Q355.024298125,338.1730942578125,355.147948125,338.0366742578125Q355.271588125,337.9002542578125,355.401778125,337.7700642578125Q355.531968125,337.6398742578125,355.668388125,337.5162342578125Q355.804808125,337.3925842578125,355.947128125,337.2757842578125Q356.089448125,337.1589842578125,356.237338125,337.0493042578125Q356.385218125,336.9396342578125,356.538298125,336.8373442578125Q356.691388125,336.7350542578125,356.849308125,336.6404042578125Q357.007228125,336.5457442578125,357.169598125,336.4589542578125Q357.331978125,336.3721642578125,357.498418125,336.2934442578125Q357.664848125,336.2147242578125,357.834948125,336.1442642578125Q358.005048125,336.0738142578125,358.178408125,336.0117842578125Q358.351758125,335.9497542578125,358.527948125,335.8963142578125Q358.704128125,335.8428642578125,358.882728125,335.7981342578125Q359.061328125,335.7533942578125,359.241898125,335.7174742578125Q359.422478125,335.6815542578125,359.604598125,335.6545442578125Q359.786722125,335.6275242578125,359.969950125,335.6094842578125Q360.153178125,335.5914342578125,360.337070125,335.5823942578125Q360.520963125,335.5733642578125,360.705078125,335.5733642578125Z" fill-rule="evenodd" fill="#FFFFFF" fill-opacity="1"/></g></g></svg>